<svg width="23" height="19" viewBox="0 0 23 19" fill="none" xmlns="http://www.w3.org/2000/svg">
<path d="M3.321e-07 2.25696C0.845812 2.62797 1.76625 2.89498 2.71434 2.99897C1.73001 2.40434 0.992889 1.46492 0.64127 0.356964C1.56494 0.915691 2.57681 1.30748 3.63202 1.51495C4.07304 1.03553 4.60644 0.6536 5.19897 0.392961C5.7915 0.132323 6.43048 -0.00143844 7.07607 1.16653e-05C9.68814 1.16653e-05 11.7888 2.15297 11.7888 4.79498C11.7888 5.16598 11.7446 5.53699 11.6728 5.89394C15.5839 5.68596 19.0722 3.78596 21.3913 0.876934C21.8139 1.61084 22.0353 2.44647 22.0326 3.2969C22.0326 4.96081 21.2006 6.42797 19.9319 7.29084C20.6795 7.26089 21.4097 7.05193 22.063 6.68093V6.73995C22.063 9.06998 20.4432 11.0009 18.2845 11.445C18.6898 11.552 19.1068 11.6068 19.5255 11.608C19.8324 11.608 20.1226 11.5771 20.4156 11.5349C19.8185 13.4349 18.0799 14.8149 16.0096 14.8599C17.6294 16.15 19.6582 16.9089 21.8612 16.9089C22.2565 16.9089 22.6213 16.8948 23 16.8499C20.9103 18.213 18.431 19 15.7608 19C7.09266 19 2.34948 11.6979 2.34948 5.35992C2.34948 5.15193 2.34948 4.94394 2.3633 4.73596C1.44562 4.05297 0.641269 3.20696 3.321e-07 2.25696Z" fill="white"/>
</svg>
