<svg width="19" height="14" viewBox="0 0 19 14" fill="none" xmlns="http://www.w3.org/2000/svg">
<path d="M0.396541 2.18694C0.5047 1.76346 0.71676 1.37727 1.0115 1.06702C1.30624 0.756774 1.67332 0.533349 2.07601 0.419108C3.55826 8.5041e-08 9.5 0 9.5 0C9.5 0 15.4417 -8.5041e-08 16.924 0.416879C17.3269 0.530749 17.6941 0.75405 17.9889 1.06436C18.2837 1.37466 18.4957 1.76105 18.6035 2.18471C19 3.74522 19 7 19 7C19 7 19 10.2548 18.6035 11.8131C18.385 12.6736 17.7404 13.3513 16.924 13.5809C15.4417 14 9.5 14 9.5 14C9.5 14 3.55826 14 2.07601 13.5809C1.25748 13.3513 0.614956 12.6736 0.396541 11.8131C9.57932e-07 10.2548 7.15256e-07 7 7.15256e-07 7C7.15256e-07 7 9.57932e-07 3.74522 0.396541 2.18694ZM11.3873 9.98726V4.01274L6.46763 6.97771L11.3873 9.98726Z" fill="white"/>
</svg>
