<svg viewBox="0 0 20 20" width="24" height="24">
    <path
        d="M10 0C4.48029 0 0 4.48029 0 10C0 15.5317 4.48029 20 10 20C15.5317 20 20 15.5197 20 10C20.0119 4.48029 15.5317 0 10 0ZM14.5878 14.4325C14.4086 14.7312 14.0263 14.8148 13.7276 14.6356C11.374 13.2019 8.42294 12.8793 4.93429 13.6679C4.59976 13.7395 4.26523 13.5364 4.19355 13.2019C4.12186 12.8674 4.32497 12.5329 4.6595 12.4612C8.47073 11.589 11.7443 11.9594 14.3728 13.5723C14.6834 13.7515 14.779 14.1338 14.5878 14.4325ZM15.8184 11.7085C15.5914 12.0789 15.1135 12.1864 14.7431 11.9713C12.055 10.3106 7.95699 9.83274 4.77897 10.8005C4.36081 10.92 3.9307 10.693 3.81123 10.2867C3.69176 9.86858 3.91876 9.43847 4.33692 9.319C7.96894 8.21983 12.4851 8.74552 15.5794 10.6452C15.9259 10.8602 16.0454 11.3381 15.8184 11.7085ZM15.9259 8.86499C12.7001 6.9534 7.38351 6.77419 4.30108 7.70609C3.81123 7.86141 3.28554 7.57467 3.13023 7.08483C2.97491 6.59498 3.26165 6.06929 3.75149 5.91398C7.28793 4.83871 13.1661 5.05376 16.8698 7.25209C17.3118 7.51493 17.4552 8.08841 17.1924 8.53047C16.9415 8.98447 16.368 9.12784 15.9259 8.86499Z"
        fill="#1ED760"></path>
</svg>