<svg width="19" height="18" viewBox="0 0 19 18" fill="none" xmlns="http://www.w3.org/2000/svg">
<path d="M9.50255 4.38213C12.2 4.38213 14.3769 6.44452 14.3769 9C14.3769 11.5555 12.2 13.6179 9.50255 13.6179C6.80516 13.6179 4.62823 11.5555 4.62823 9C4.62823 6.44452 6.80516 4.38213 9.50255 4.38213ZM9.50255 12.0013C11.247 12.0013 12.6705 10.6526 12.6705 9C12.6705 7.34738 11.247 5.99872 9.50255 5.99872C7.75816 5.99872 6.3346 7.34738 6.3346 9C6.3346 10.6526 7.75816 12.0013 9.50255 12.0013ZM4.42859 3.11677C5.05838 3.11677 5.56697 3.5986 5.56697 4.19525C5.56697 4.79191 5.05838 5.27373 4.42859 5.27373C3.79881 5.27373 3.29022 4.79416 3.29022 4.19525C3.29003 4.05358 3.31935 3.91326 3.37649 3.78233C3.43364 3.6514 3.51748 3.53244 3.62323 3.43226C3.72897 3.33208 3.85454 3.25264 3.99274 3.19851C4.13093 3.14437 4.27905 3.1166 4.42859 3.11677V3.11677ZM0.00106097 9C0.00106097 7.75716 -0.0108224 6.52558 0.062851 5.28499C0.136524 3.84402 0.483502 2.56515 1.59573 1.51144C2.71034 0.455477 4.05785 0.129006 5.57885 0.0592092C6.89071 -0.0105879 8.19069 0.000669702 9.50018 0.000669702C10.812 0.000669702 12.112 -0.0105879 13.4215 0.0592092C14.9425 0.129006 16.2924 0.457728 17.4046 1.51144C18.5192 2.5674 18.8638 3.84402 18.9375 5.28499C19.0112 6.52783 18.9993 7.75941 18.9993 9C18.9993 10.2406 19.0112 11.4744 18.9375 12.715C18.8638 14.156 18.5169 15.4348 17.4046 16.4886C16.29 17.5445 14.9425 17.871 13.4215 17.9408C12.1096 18.0106 10.8097 17.9993 9.50018 17.9993C8.18832 17.9993 6.88834 18.0106 5.57885 17.9408C4.05785 17.871 2.70796 17.5423 1.59573 16.4886C0.481126 15.4326 0.136524 14.156 0.062851 12.715C-0.013199 11.4744 0.00106097 10.2428 0.00106097 9V9ZM2.09244 14.3091C2.26592 14.7189 2.47506 15.0251 2.81016 15.3403C3.14525 15.6577 3.46609 15.8559 3.89862 16.0202C5.14869 16.4908 8.11702 16.385 9.50255 16.385C10.8881 16.385 13.8588 16.4908 15.1089 16.0225C15.5414 15.8581 15.8646 15.66 16.1973 15.3425C16.5324 15.0251 16.7416 14.7211 16.915 14.3113C17.4094 13.1248 17.2977 10.3126 17.2977 9C17.2977 7.68736 17.4094 4.87296 16.915 3.68866C16.7416 3.27888 16.5324 2.97268 16.1973 2.65746C15.8622 2.34225 15.5414 2.14187 15.1089 1.97751C13.8588 1.50919 10.8881 1.61501 9.50255 1.61501C8.11702 1.61501 5.14632 1.50919 3.89624 1.97751C3.46371 2.14187 3.1405 2.34 2.80778 2.65746C2.47268 2.97493 2.26355 3.27888 2.09006 3.68866C1.59573 4.87296 1.70743 7.68736 1.70743 9C1.70743 10.3126 1.59573 13.1248 2.09244 14.3091Z" fill="white"/>
</svg>
